<svg xmlns="http://www.w3.org/2000/svg" viewBox="0.00 0.00 338.00 483.60" fill="none">
  <title>Pocket</title>
  <rect x="16.00" y="44.60" width="46" height="46" rx="7" ry="7" fill="none" stroke="#e6e8ec" stroke-width="5"/>
  <rect x="68.00" y="36.80" width="46" height="46" rx="7" ry="7" fill="none" stroke="#e6e8ec" stroke-width="5"/>
  <rect x="120.00" y="21.20" width="46" height="46" rx="7" ry="7" fill="none" stroke="#e6e8ec" stroke-width="5"/>
  <rect x="172.00" y="16.00" width="46" height="46" rx="7" ry="7" fill="none" stroke="#e6e8ec" stroke-width="5"/>
  <rect x="224.00" y="26.40" width="46" height="46" rx="7" ry="7" fill="none" stroke="#e6e8ec" stroke-width="5"/>
  <rect x="16.00" y="96.60" width="46" height="46" rx="7" ry="7" fill="none" stroke="#e6e8ec" stroke-width="5"/>
  <rect x="68.00" y="88.80" width="46" height="46" rx="7" ry="7" fill="none" stroke="#e6e8ec" stroke-width="5"/>
  <rect x="120.00" y="73.20" width="46" height="46" rx="7" ry="7" fill="none" stroke="#e6e8ec" stroke-width="5"/>
  <rect x="172.00" y="68.00" width="46" height="46" rx="7" ry="7" fill="none" stroke="#e6e8ec" stroke-width="5"/>
  <rect x="224.00" y="78.40" width="46" height="46" rx="7" ry="7" fill="none" stroke="#e6e8ec" stroke-width="5"/>
  <rect x="276.00" y="94.00" width="46" height="46" rx="7" ry="7" fill="none" stroke="#e6e8ec" stroke-width="5"/>
  <rect x="16.00" y="148.60" width="46" height="46" rx="7" ry="7" fill="none" stroke="#e6e8ec" stroke-width="5"/>
  <rect x="68.00" y="140.80" width="46" height="46" rx="7" ry="7" fill="none" stroke="#e6e8ec" stroke-width="5"/>
  <rect x="120.00" y="125.20" width="46" height="46" rx="7" ry="7" fill="none" stroke="#e6e8ec" stroke-width="5"/>
  <rect x="172.00" y="120.00" width="46" height="46" rx="7" ry="7" fill="none" stroke="#e6e8ec" stroke-width="5"/>
  <rect x="224.00" y="130.40" width="46" height="46" rx="7" ry="7" fill="none" stroke="#e6e8ec" stroke-width="5"/>
  <rect x="276.00" y="146.00" width="46" height="46" rx="7" ry="7" fill="none" stroke="#e6e8ec" stroke-width="5"/>
  <rect x="16.00" y="200.60" width="46" height="46" rx="7" ry="7" fill="none" stroke="#e6e8ec" stroke-width="5"/>
  <rect x="68.00" y="192.80" width="46" height="46" rx="7" ry="7" fill="none" stroke="#e6e8ec" stroke-width="5"/>
  <rect x="120.00" y="177.20" width="46" height="46" rx="7" ry="7" fill="none" stroke="#e6e8ec" stroke-width="5"/>
  <rect x="172.00" y="172.00" width="46" height="46" rx="7" ry="7" fill="none" stroke="#e6e8ec" stroke-width="5"/>
  <rect x="224.00" y="182.40" width="46" height="46" rx="7" ry="7" fill="none" stroke="#e6e8ec" stroke-width="5"/>
  <rect x="276.00" y="198.00" width="46" height="46" rx="7" ry="7" fill="none" stroke="#e6e8ec" stroke-width="5"/>
  <rect x="16.00" y="252.60" width="46" height="46" rx="7" ry="7" fill="none" stroke="#e6e8ec" stroke-width="5"/>
  <rect x="68.00" y="244.80" width="46" height="46" rx="7" ry="7" fill="none" stroke="#e6e8ec" stroke-width="5"/>
  <rect x="120.00" y="229.20" width="46" height="46" rx="7" ry="7" fill="none" stroke="#e6e8ec" stroke-width="5"/>
  <rect x="172.00" y="224.00" width="46" height="46" rx="7" ry="7" fill="none" stroke="#e6e8ec" stroke-width="5"/>
  <rect x="224.00" y="234.40" width="46" height="46" rx="7" ry="7" fill="none" stroke="#e6e8ec" stroke-width="5"/>
  <rect x="276.00" y="250.00" width="46" height="46" rx="7" ry="7" fill="none" stroke="#e6e8ec" stroke-width="5"/>
  <rect x="156.40" y="369.60" width="46" height="46" rx="7" ry="7" fill="none" stroke="#e6e8ec" stroke-width="5"/>
  <rect x="208.40" y="369.60" width="46" height="46" rx="7" ry="7" fill="none" stroke="#e6e8ec" stroke-width="5"/>
  <rect x="260.40" y="369.60" width="46" height="46" rx="7" ry="7" fill="none" stroke="#e6e8ec" stroke-width="5"/>
  <rect x="16.00" y="304.60" width="46" height="46" rx="7" ry="7" fill="none" stroke="#e6e8ec" stroke-width="5"/>
  <rect x="68.00" y="296.80" width="46" height="46" rx="7" ry="7" fill="none" stroke="#e6e8ec" stroke-width="5"/>
  <rect x="120.00" y="281.20" width="46" height="46" rx="7" ry="7" fill="none" stroke="#e6e8ec" stroke-width="5"/>
  <rect x="172.00" y="276.00" width="46" height="46" rx="7" ry="7" fill="none" stroke="#e6e8ec" stroke-width="5"/>
  <rect x="224.00" y="286.40" width="46" height="46" rx="7" ry="7" fill="none" stroke="#e6e8ec" stroke-width="5"/>
  <rect x="156.40" y="421.60" width="46" height="46" rx="7" ry="7" fill="none" stroke="#e6e8ec" stroke-width="5"/>
  <rect x="208.40" y="421.60" width="46" height="46" rx="7" ry="7" fill="none" stroke="#e6e8ec" stroke-width="5"/>
  <rect x="260.40" y="421.60" width="46" height="46" rx="7" ry="7" fill="none" stroke="#e6e8ec" stroke-width="5"/>
</svg>
