<svg xmlns="http://www.w3.org/2000/svg" viewBox="0.00 0.00 338.00 483.60" fill="none">
  <title>Pocket — break in your Glove 80</title>
  <rect x="16.00" y="44.60" width="46" height="46" rx="7" ry="7" fill="none" stroke="#e6e8ec" stroke-width="5"/>
  <rect x="68.00" y="36.80" width="46" height="46" rx="7" ry="7" fill="none" stroke="#e6e8ec" stroke-width="5"/>
  <rect x="120.00" y="21.20" width="46" height="46" rx="7" ry="7" fill="none" stroke="#e6e8ec" stroke-width="5"/>
  <rect x="172.00" y="16.00" width="46" height="46" rx="7" ry="7" fill="none" stroke="#e6e8ec" stroke-width="5"/>
  <rect x="224.00" y="26.40" width="46" height="46" rx="7" ry="7" fill="none" stroke="#e6e8ec" stroke-width="5"/>
  <rect x="16.00" y="96.60" width="46" height="46" rx="7" ry="7" fill="none" stroke="#e6e8ec" stroke-width="5"/>
  <rect x="68.00" y="88.80" width="46" height="46" rx="7" ry="7" fill="none" stroke="#e6e8ec" stroke-width="5"/>
  <rect x="120.00" y="73.20" width="46" height="46" rx="7" ry="7" fill="none" stroke="#e6e8ec" stroke-width="5"/>
  <rect x="172.00" y="68.00" width="46" height="46" rx="7" ry="7" fill="none" stroke="#e6e8ec" stroke-width="5"/>
  <rect x="224.00" y="78.40" width="46" height="46" rx="7" ry="7" fill="none" stroke="#e6e8ec" stroke-width="5"/>
  <rect x="276.00" y="94.00" width="46" height="46" rx="7" ry="7" fill="none" stroke="#e6e8ec" stroke-width="5"/>
  <rect x="16.00" y="148.60" width="46" height="46" rx="7" ry="7" fill="none" stroke="#e6e8ec" stroke-width="5"/>
  <rect x="68.00" y="140.80" width="46" height="46" rx="7" ry="7" fill="none" stroke="#e6e8ec" stroke-width="5"/>
  <rect x="120.00" y="125.20" width="46" height="46" rx="7" ry="7" fill="none" stroke="#e6e8ec" stroke-width="5"/>
  <rect x="172.00" y="120.00" width="46" height="46" rx="7" ry="7" fill="none" stroke="#e6e8ec" stroke-width="5"/>
  <rect x="224.00" y="130.40" width="46" height="46" rx="7" ry="7" fill="none" stroke="#e6e8ec" stroke-width="5"/>
  <rect x="276.00" y="146.00" width="46" height="46" rx="7" ry="7" fill="none" stroke="#e6e8ec" stroke-width="5"/>
  <rect x="16.00" y="200.60" width="46" height="46" rx="7" ry="7" fill="none" stroke="#e6e8ec" stroke-width="5"/>
  <rect x="68.00" y="192.80" width="46" height="46" rx="7" ry="7" fill="none" stroke="#e6e8ec" stroke-width="5"/>
  <rect x="120.00" y="177.20" width="46" height="46" rx="7" ry="7" fill="none" stroke="#e6e8ec" stroke-width="5"/>
  <rect x="172.00" y="172.00" width="46" height="46" rx="7" ry="7" fill="none" stroke="#e6e8ec" stroke-width="5"/>
  <rect x="224.00" y="182.40" width="46" height="46" rx="7" ry="7" fill="none" stroke="#e6e8ec" stroke-width="5"/>
  <rect x="276.00" y="198.00" width="46" height="46" rx="7" ry="7" fill="none" stroke="#e6e8ec" stroke-width="5"/>
  <rect x="16.00" y="252.60" width="46" height="46" rx="7" ry="7" fill="none" stroke="#e6e8ec" stroke-width="5"/>
  <rect x="68.00" y="244.80" width="46" height="46" rx="7" ry="7" fill="none" stroke="#e6e8ec" stroke-width="5"/>
  <rect x="120.00" y="229.20" width="46" height="46" rx="7" ry="7" fill="none" stroke="#e6e8ec" stroke-width="5"/>
  <rect x="172.00" y="224.00" width="46" height="46" rx="7" ry="7" fill="none" stroke="#e6e8ec" stroke-width="5"/>
  <rect x="224.00" y="234.40" width="46" height="46" rx="7" ry="7" fill="none" stroke="#e6e8ec" stroke-width="5"/>
  <rect x="276.00" y="250.00" width="46" height="46" rx="7" ry="7" fill="none" stroke="#e6e8ec" stroke-width="5"/>
  <rect x="156.40" y="369.60" width="46" height="46" rx="7" ry="7" fill="none" stroke="#e6e8ec" stroke-width="5"/>
  <rect x="208.40" y="369.60" width="46" height="46" rx="7" ry="7" fill="none" stroke="#e6e8ec" stroke-width="5"/>
  <rect x="260.40" y="369.60" width="46" height="46" rx="7" ry="7" fill="none" stroke="#e6e8ec" stroke-width="5"/>
  <rect x="16.00" y="304.60" width="46" height="46" rx="7" ry="7" fill="none" stroke="#e6e8ec" stroke-width="5"/>
  <rect x="68.00" y="296.80" width="46" height="46" rx="7" ry="7" fill="none" stroke="#e6e8ec" stroke-width="5"/>
  <rect x="120.00" y="281.20" width="46" height="46" rx="7" ry="7" fill="none" stroke="#e6e8ec" stroke-width="5"/>
  <rect x="172.00" y="276.00" width="46" height="46" rx="7" ry="7" fill="none" stroke="#e6e8ec" stroke-width="5"/>
  <rect x="224.00" y="286.40" width="46" height="46" rx="7" ry="7" fill="none" stroke="#e6e8ec" stroke-width="5"/>
  <rect x="156.40" y="421.60" width="46" height="46" rx="7" ry="7" fill="none" stroke="#e6e8ec" stroke-width="5"/>
  <rect x="208.40" y="421.60" width="46" height="46" rx="7" ry="7" fill="none" stroke="#e6e8ec" stroke-width="5"/>
  <rect x="260.40" y="421.60" width="46" height="46" rx="7" ry="7" fill="none" stroke="#e6e8ec" stroke-width="5"/>
  <circle cx="68.00" cy="395.60" r="38" fill="#1a1d22" stroke="#e6e8ec" stroke-width="5"/>
  <path d="M 43.3 374.7 Q 68 393.7 92.7 374.7" stroke="#facc15" stroke-width="3.2" stroke-linecap="round"/>
  <path d="M 43.3 416.49999999999994 Q 68 397.49999999999994 92.7 416.49999999999994" stroke="#facc15" stroke-width="3.2" stroke-linecap="round"/>
  <line x1="50.34" y1="374.71" x2="46.14" y2="381.53" stroke="#facc15" stroke-width="3.2" stroke-linecap="round"/>
  <line x1="56.34" y1="377.80" x2="53.31" y2="385.20" stroke="#facc15" stroke-width="3.2" stroke-linecap="round"/>
  <line x1="62.22" y1="379.61" x2="60.61" y2="387.44" stroke="#facc15" stroke-width="3.2" stroke-linecap="round"/>
  <line x1="68.00" y1="380.20" x2="68.00" y2="388.20" stroke="#facc15" stroke-width="3.2" stroke-linecap="round"/>
  <line x1="73.78" y1="379.61" x2="75.39" y2="387.44" stroke="#facc15" stroke-width="3.2" stroke-linecap="round"/>
  <line x1="79.66" y1="377.80" x2="82.69" y2="385.20" stroke="#facc15" stroke-width="3.2" stroke-linecap="round"/>
  <line x1="85.66" y1="374.71" x2="89.86" y2="381.53" stroke="#facc15" stroke-width="3.2" stroke-linecap="round"/>
  <line x1="46.14" y1="409.67" x2="50.34" y2="416.49" stroke="#facc15" stroke-width="3.2" stroke-linecap="round"/>
  <line x1="53.31" y1="406.00" x2="56.34" y2="413.40" stroke="#facc15" stroke-width="3.2" stroke-linecap="round"/>
  <line x1="60.61" y1="403.76" x2="62.22" y2="411.59" stroke="#facc15" stroke-width="3.2" stroke-linecap="round"/>
  <line x1="68.00" y1="403.00" x2="68.00" y2="411.00" stroke="#facc15" stroke-width="3.2" stroke-linecap="round"/>
  <line x1="75.39" y1="403.76" x2="73.78" y2="411.59" stroke="#facc15" stroke-width="3.2" stroke-linecap="round"/>
  <line x1="82.69" y1="406.00" x2="79.66" y2="413.40" stroke="#facc15" stroke-width="3.2" stroke-linecap="round"/>
  <line x1="89.86" y1="409.67" x2="85.66" y2="416.49" stroke="#facc15" stroke-width="3.2" stroke-linecap="round"/>
</svg>
